<svg width="46" height="46" viewBox="0 0 46 46" fill="none" xmlns="http://www.w3.org/2000/svg">
<g clip-path="url(#clip0_119_213)">
<path d="M44.6442 37.8691L45.9211 34.2776C46.2324 33.4018 45.5827 32.4785 44.6513 32.4785H40.5142V28.3457C40.5142 27.6036 39.9142 27.0018 39.1729 26.9984C40.0568 24.8741 40.5187 22.5809 40.5187 20.2598C40.5187 10.5995 32.6598 2.74023 23 2.74023C13.3402 2.74023 5.48127 10.5995 5.48127 20.2598C5.48127 22.5819 5.94343 24.8759 6.82794 27.0009C6.11 27.0306 5.53652 27.6204 5.53652 28.3457V32.4785H1.34864C0.419292 32.4785 -0.233063 33.4 0.0788744 34.2776L1.35582 37.8691L0.0788744 41.4606C-0.232434 42.3364 0.417316 43.2598 1.34864 43.2598H12.2237C12.9679 43.2598 13.5712 42.6564 13.5712 41.9121V37.7793H32.4286V41.9121C32.4286 42.6564 33.032 43.2598 33.7762 43.2598H44.6513C45.5806 43.2598 46.233 42.3382 45.921 41.4606L44.6442 37.8691ZM8.23175 35.084V29.6934H37.8191V35.084H8.23175ZM17.4514 22.6874L13.7995 18.4418L19.2494 17.1536C19.6004 17.0707 19.9035 16.8504 20.0909 16.5422L23 11.7569L25.9091 16.5421C26.0965 16.8504 26.3997 17.0706 26.7507 17.1535L32.2005 18.4417L28.5487 22.6873C28.3134 22.9607 28.1976 23.3171 28.2272 23.6766L28.5004 26.998H17.4997L17.7729 23.6766C17.8024 23.3171 17.6866 22.9608 17.4514 22.6874ZM23 5.43555C31.1737 5.43555 37.8236 12.0857 37.8236 20.2598C37.8236 22.6087 37.2647 24.9227 36.205 26.998H31.2046L30.9594 24.0177L35.6892 18.519C36.3471 17.754 35.96 16.5608 34.9775 16.3287L27.9192 14.6603L24.1514 8.46274C23.6273 7.60069 22.3729 7.60006 21.8484 8.46274L18.0806 14.6603L11.0223 16.3287C10.0404 16.5607 9.65236 17.7537 10.3106 18.519L15.0404 24.0177L14.7952 26.998H9.79476C8.73514 24.9227 8.17622 22.6088 8.17622 20.2598C8.1764 12.0857 14.8263 5.43555 23 5.43555ZM10.8761 40.5645H3.258L4.05572 38.3206C4.15958 38.0286 4.15958 37.7097 4.05572 37.4176L3.258 35.1738H5.53652V36.4316C5.53652 37.1759 6.13991 37.7793 6.88409 37.7793H10.8761V40.5645ZM41.9442 38.3206L42.7419 40.5645H35.1238V37.7793H39.1666C39.9108 37.7793 40.5141 37.1759 40.5141 36.4316V35.1738H42.7418L41.9441 37.4177C41.8404 37.7097 41.8404 38.0286 41.9442 38.3206Z" fill="#485865"/>
</g>
<defs>
<clipPath id="clip0_119_213">
<rect width="46" height="46" fill="white"/>
</clipPath>
</defs>
</svg>
